<?xml version="1.0" standalone="no"?><!DOCTYPE svg PUBLIC "-//W3C//DTD SVG 1.1//EN" "http://www.w3.org/Graphics/SVG/1.1/DTD/svg11.dtd"><svg t="1600775265517" class="icon" viewBox="0 0 1024 1024" version="1.1" xmlns="http://www.w3.org/2000/svg" p-id="867" xmlns:xlink="http://www.w3.org/1999/xlink" width="200" height="200"><defs><style type="text/css"></style></defs><path d="M1024 910.222222a113.777778 113.777778 0 0 1-113.777778 113.777778H113.777778a113.777778 113.777778 0 0 1-113.777778-113.777778V113.777778a113.777778 113.777778 0 0 1 113.777778-113.777778h796.444444a113.777778 113.777778 0 0 1 113.777778 113.777778v796.444444z" fill="#8cc5f1" p-id="868"></path><path d="M232.504889 259.555556c5.290667-31.744 39.68-67.896889 86.442667-67.896889 44.088889 0 78.506667 31.744 88.206222 63.488l104.078222 349.240889h1.763556L617.016889 255.146667c9.699556-31.744 44.088889-63.488 88.206222-63.488 46.705778 0 81.123556 36.152889 86.442667 67.896889l82.005333 492.145777c0.881778 5.290667 0.881778 10.581333 0.881778 14.961778 0 38.826667-28.216889 63.488-63.488 63.488-44.999111 0-62.606222-20.280889-68.778667-61.724444l-52.053333-358.940445h-1.763556l-105.841777 369.521778c-6.172444 21.162667-22.897778 51.143111-70.542223 51.143111-47.616 0-64.369778-29.980444-70.542222-51.143111l-105.841778-369.521778h-1.763555l-52.053334 358.968889c-6.172444 41.443556-23.808 61.724444-68.778666 61.724445-35.271111 0-63.488-24.661333-63.488-63.488 0-4.380444 0-9.699556 0.881778-14.961778L232.504889 259.555556z" fill="#ffffff" p-id="869"></path></svg>